@startuml Brick_Breaker

class Juego
class Barra
class Ladrillos
class Pelota
class Colisionable
class Monedas
class Poderes
class Jugador
class Vida
class Colores

Juego o-- Ladrillos
Ladrillos o-- Poderes
Ladrillos o-- Monedas
Juego o-- Jugador
Ladrillos o-- Colores
Jugador o-- "3" Vida
Pelota o-- Poderes

Jugador *-- Juego
Jugador *-- "1" Barra 
Barra *-- "1"Pelota
Barra *-- "3"Vida
Jugador *-- "3"Vida
Jugador *-- Poderes
Jugador *-- Monedas

Pelota --|> Colisionable
Ladrillos --|> Colisionable


@enduml